<svg width="120" height="60" viewBox="0 0 120 60" fill="none" xmlns="http://www.w3.org/2000/svg">
  <path d="M10 20C10 20 30 5 60 5C90 5 110 20 110 20C110 20 90 35 60 35C30 35 10 20 10 20Z" fill="#AEDDFF" fill-opacity="0.7"/>
  <path d="M60 35C60 35 60 45 60 55C40 55 20 35 20 35L60 35Z" fill="#AEDDFF" fill-opacity="0.7"/>
  <path d="M60 35C60 35 60 45 60 55C80 55 100 35 100 35L60 35Z" fill="#AEDDFF" fill-opacity="0.7"/>
  <path d="M15 20C15 20 33 10 60 10C87 10 105 20 105 20C105 20 87 30 60 30C33 30 15 20 15 20Z" fill="#FFFFFF" fill-opacity="0.5"/>
</svg>
